<svg width="12" height="12" viewBox="0 0 12 12" fill="none" xmlns="http://www.w3.org/2000/svg">
<path d="M10.8938 11.8125L6.75938 7.67813C6.43125 7.94063 6.05391 8.14844 5.62734 8.30156C5.20078 8.45469 4.74688 8.53125 4.26563 8.53125C3.07344 8.53125 2.06456 8.11825 1.239 7.29225C0.413438 6.46625 0.000437847 5.45738 3.47222e-07 4.26562C-0.000437153 3.07387 0.412563 2.065 1.239 1.239C2.06544 0.413 3.07431 0 4.26563 0C5.45694 0 6.46603 0.413 7.29291 1.239C8.11978 2.065 8.53256 3.07387 8.53125 4.26562C8.53125 4.74687 8.45469 5.20078 8.30156 5.62734C8.14844 6.05391 7.94063 6.43125 7.67813 6.75937L11.8125 10.8938L10.8938 11.8125ZM4.26563 7.21875C5.08594 7.21875 5.78331 6.93175 6.35775 6.35775C6.93219 5.78375 7.21919 5.08638 7.21875 4.26562C7.21831 3.44488 6.93131 2.74772 6.35775 2.17416C5.78419 1.60059 5.08681 1.31337 4.26563 1.3125C3.44444 1.31163 2.74728 1.59884 2.17416 2.17416C1.60103 2.74947 1.31381 3.44662 1.3125 4.26562C1.31119 5.08463 1.59841 5.782 2.17416 6.35775C2.74991 6.9335 3.44706 7.2205 4.26563 7.21875Z" fill="black"/>
</svg>
